<svg xmlns="http://www.w3.org/2000/svg" width="409" height="406" viewBox="0 0 409 406">
<g>
<path d="M 206.39 351.26 C205.90,364.27 205.34,370.00 204.55,370.00 C203.00,370.00 195.30,353.37 187.41,333.00 C174.10,298.63 156.27,279.32 126.05,266.57 C113.29,261.18 109.00,259.77 109.00,260.95 C109.00,261.39 109.68,262.32 110.50,263.00 C111.32,263.68 112.00,264.60 112.00,265.03 C112.00,265.98 127.11,281.00 128.07,281.00 C129.75,281.00 153.78,307.06 156.21,311.52 C163.02,324.04 164.10,326.22 165.56,330.53 C169.12,341.00 171.67,365.00 169.23,365.00 C168.81,365.00 166.88,363.92 164.95,362.61 C161.71,360.41 161.32,359.59 160.14,352.58 C157.11,334.54 149.04,318.31 135.49,303.00 C127.05,293.46 102.80,268.87 102.31,269.35 C101.69,269.97 110.52,284.63 115.64,291.50 C128.99,309.37 137.67,322.41 141.21,329.92 C145.71,339.46 149.29,352.01 147.92,353.44 C147.37,354.01 143.62,352.10 138.26,348.51 C127.46,341.28 108.20,322.24 101.31,311.98 C90.87,296.45 82.25,275.51 79.99,260.21 C78.55,250.44 77.51,222.00 78.59,222.00 C79.09,222.00 80.78,224.03 82.35,226.51 C96.35,248.68 119.02,260.07 143.14,257.04 C155.03,255.55 164.41,250.82 173.43,241.77 C190.93,224.23 194.79,198.26 182.82,178.60 L 179.83 173.70 L 181.75 171.10 C184.37,167.54 193.14,162.39 197.89,161.63 C205.72,160.38 213.39,163.37 219.39,170.01 C225.41,176.68 227.26,182.07 226.77,191.50 C225.97,206.62 219.56,215.21 202.82,223.56 C189.78,230.07 186.02,233.91 191.25,235.41 C192.49,235.77 197.32,236.33 202.00,236.66 C221.23,238.01 237.03,229.20 245.50,212.41 C248.31,206.84 248.48,205.81 248.49,194.50 C248.50,183.46 248.28,182.03 245.72,176.57 C242.21,169.07 237.18,162.91 231.19,158.77 L 226.50 155.53 L 232.85 154.73 C241.15,153.69 244.75,151.70 255.00,142.44 C264.82,133.58 266.23,132.85 275.00,132.03 L 281.50 131.43 L 277.00 130.10 C266.75,127.08 256.27,130.06 244.07,139.44 C233.04,147.93 224.99,149.46 204.82,146.87 C186.69,144.54 172.92,150.55 165.62,163.96 L 162.86 169.03 L 167.98 175.17 C177.04,186.01 179.39,192.57 178.82,205.46 C178.47,213.50 178.00,215.36 174.59,222.27 C163.34,245.02 137.63,253.04 113.12,241.46 C100.47,235.49 88.33,220.85 82.35,204.37 C78.60,194.06 77.67,180.97 78.30,148.00 C78.79,122.90 79.18,117.35 80.89,110.78 C86.16,90.59 98.00,71.82 113.65,58.88 C124.97,49.51 127.31,48.66 120.12,56.52 C108.11,69.66 102.36,78.96 97.26,93.50 C95.22,99.29 94.65,103.44 93.96,117.50 C92.83,140.31 92.78,192.00 93.88,192.00 C94.36,192.00 95.35,190.58 96.07,188.84 C96.79,187.10 98.87,183.51 100.69,180.86 L 104.00 176.05 L 104.00 143.61 C104.00,109.20 104.69,101.93 108.98,91.00 C111.43,84.75 119.70,71.00 121.00,71.00 C121.48,71.00 122.16,70.08 122.51,68.96 C124.44,62.88 147.91,47.54 163.50,42.18 C183.71,35.22 210.93,35.31 231.70,42.39 C239.97,45.21 253.11,51.86 257.50,55.44 L 260.50 57.89 L 252.50 55.44 C237.12,50.73 225.13,49.00 207.86,49.00 C174.86,49.00 152.87,57.01 133.92,75.94 C126.78,83.06 124.55,86.11 120.67,94.00 C118.11,99.23 115.33,106.18 114.51,109.46 C112.15,118.79 112.57,131.30 115.66,143.77 C117.54,151.37 118.34,157.31 118.41,164.14 L 118.50 173.78 L 113.21 179.37 C105.75,187.26 104.05,191.51 104.02,202.31 C104.00,209.69 104.41,211.99 106.53,216.47 C109.33,222.39 114.66,227.73 121.20,231.17 C124.77,233.04 127.12,233.44 135.00,233.46 C143.42,233.50 145.08,233.20 149.61,230.81 C161.37,224.60 168.04,212.20 166.67,199.10 C165.67,189.59 163.55,185.67 155.24,178.02 L 147.72 171.08 L 148.41 164.29 C149.93,149.29 159.52,137.20 173.70,132.38 C180.46,130.09 194.95,130.94 206.13,134.28 C211.66,135.94 217.60,136.94 222.67,137.08 C232.59,137.34 237.50,135.33 247.80,126.81 C251.87,123.45 257.63,119.71 260.59,118.50 C263.56,117.30 265.68,116.02 265.32,115.66 C263.55,113.88 253.52,115.21 243.83,118.52 C231.71,122.64 222.15,124.37 216.62,123.44 L 212.66 122.77 L 219.68 119.51 C223.54,117.73 229.55,114.37 233.04,112.05 C247.90,102.18 256.00,99.61 270.38,100.19 C282.43,100.68 287.53,102.61 294.86,109.47 C304.48,118.47 307.03,130.55 302.92,147.71 C298.56,165.94 299.55,171.51 312.12,199.65 C315.35,206.89 318.00,213.70 318.00,214.78 C318.00,217.48 316.11,218.84 308.87,221.35 C305.12,222.66 301.94,224.50 300.79,226.05 C298.93,228.57 298.94,228.69 300.97,233.43 C303.41,239.12 302.85,240.28 296.26,243.10 C291.60,245.10 291.36,245.57 293.53,248.44 C296.04,251.75 295.40,255.74 292.09,257.45 C286.40,260.40 285.00,263.39 285.00,272.62 C285.00,280.43 284.81,281.18 282.08,284.23 C279.24,287.41 278.95,287.50 271.33,287.41 C265.35,287.35 260.55,286.44 251.02,283.58 C242.28,280.96 237.64,280.04 235.52,280.50 C229.90,281.74 225.90,281.14 218.19,277.94 C205.58,272.70 191.01,265.60 182.67,260.65 C178.36,258.09 174.03,256.00 173.05,256.00 C171.16,256.00 166.00,259.61 166.00,260.93 C166.00,263.22 196.77,280.23 211.00,285.80 C228.54,292.68 258.30,301.94 276.00,306.04 L 287.50 308.70 L 291.57 304.35 C294.46,301.26 296.44,300.00 298.39,300.00 C302.09,300.00 320.60,304.74 324.24,306.63 C334.30,311.83 328.76,333.03 317.35,332.99 C315.23,332.98 308.56,331.66 302.51,330.06 C290.06,326.76 287.00,324.46 287.00,318.41 C287.00,316.48 286.44,314.78 285.75,314.59 C285.06,314.40 278.42,312.80 271.00,311.04 C256.78,307.67 249.01,305.42 237.50,301.33 C236.74,301.06 236.01,300.81 235.31,300.56 C224.10,296.58 221.60,295.69 220.24,296.57 C219.77,296.87 219.43,297.39 218.91,298.06 C215.82,302.08 211.00,314.59 208.98,323.84 C207.74,329.52 206.85,339.01 206.39,351.26 ZM 197.00 210.06 C197.00,211.38 197.57,211.26 201.79,209.10 C208.34,205.74 213.03,198.69 212.98,192.28 C212.95,188.61 209.86,182.05 206.87,179.30 C201.89,174.72 191.00,172.12 191.00,175.50 C191.00,176.32 191.43,177.00 191.97,177.00 C193.57,177.00 200.00,183.11 201.55,186.10 C204.42,191.64 202.22,205.89 198.10,208.44 C197.50,208.81 197.00,209.54 197.00,210.06 Z" fill="rgb(17,138,141)"/>
<path d="M 150.73 122.91 C148.95,124.89 146.69,127.64 145.70,129.01 L 143.90 131.50 L 144.38 128.50 C145.72,120.02 156.02,103.13 165.16,94.41 C180.87,79.43 196.52,71.54 219.69,66.90 C243.47,62.15 267.19,67.01 284.71,80.25 C289.89,84.16 300.72,96.61 299.77,97.56 C299.51,97.82 296.42,96.69 292.90,95.06 C282.83,90.37 275.95,89.00 262.45,89.00 C243.43,89.00 233.53,92.15 217.21,103.38 C212.97,106.30 207.48,109.85 205.00,111.26 C200.10,114.06 187.97,118.31 187.17,117.50 C186.89,117.23 186.85,116.86 187.08,116.69 C187.31,116.52 189.87,114.67 192.76,112.59 C195.66,110.51 201.46,104.76 205.66,99.81 C217.59,85.75 224.09,81.26 236.50,78.49 L 242.50 77.16 L 235.43 77.08 C221.29,76.92 211.99,81.32 197.72,94.89 C186.59,105.47 183.53,107.42 172.50,110.99 C162.81,114.12 154.56,118.63 150.73,122.91 Z" fill="rgb(36,24,169)"/>
<path d="M 149.63 217.87 C144.43,223.00 143.97,223.23 137.86,223.68 C132.64,224.06 130.78,223.75 127.50,221.96 C122.10,219.02 120.12,217.14 117.98,212.95 C112.64,202.50 115.96,191.26 126.20,185.12 L 129.89 182.90 L 130.22 153.20 C130.60,119.83 131.06,117.14 138.72,104.05 C142.36,97.84 156.93,82.00 159.01,82.00 C159.57,82.00 158.03,84.45 155.59,87.45 C149.80,94.56 143.49,107.50 140.99,117.41 C139.23,124.39 139.00,128.66 139.00,153.68 L 139.00 182.05 L 141.75 183.08 C147.31,185.17 151.95,189.26 154.47,194.31 C158.94,203.28 157.55,210.05 149.63,217.87 Z" fill="rgb(181,28,147)"/>
<path d="M 0.00 203.00 L 0.00 0.00 L 204.50 0.00 L 409.00 0.00 L 409.00 203.00 L 409.00 406.00 L 204.50 406.00 L 0.00 406.00 L 0.00 203.00 ZM 206.39 351.26 C206.85,339.01 207.74,329.52 208.98,323.84 C211.00,314.59 215.82,302.08 218.91,298.06 C221.02,295.33 220.12,295.17 237.50,301.33 C249.01,305.42 256.78,307.67 271.00,311.04 C278.42,312.80 285.06,314.40 285.75,314.59 C286.44,314.78 287.00,316.48 287.00,318.41 C287.00,324.46 290.06,326.76 302.51,330.06 C308.56,331.66 315.23,332.98 317.35,332.99 C328.76,333.03 334.30,311.83 324.24,306.63 C320.60,304.74 302.09,300.00 298.39,300.00 C296.44,300.00 294.46,301.26 291.57,304.35 L 287.50 308.70 L 276.00 306.04 C258.30,301.94 228.54,292.68 211.00,285.80 C196.77,280.23 166.00,263.22 166.00,260.93 C166.00,259.61 171.16,256.00 173.05,256.00 C174.03,256.00 178.36,258.09 182.67,260.65 C191.01,265.60 205.58,272.70 218.19,277.94 C225.90,281.14 229.90,281.74 235.52,280.50 C237.64,280.04 242.28,280.96 251.02,283.58 C260.55,286.44 265.35,287.35 271.33,287.41 C278.95,287.50 279.24,287.41 282.08,284.23 C284.81,281.18 285.00,280.43 285.00,272.62 C285.00,263.39 286.40,260.40 292.09,257.45 C295.40,255.74 296.04,251.75 293.53,248.44 C291.36,245.57 291.60,245.10 296.26,243.10 C302.85,240.28 303.41,239.12 300.97,233.43 C298.94,228.69 298.93,228.57 300.79,226.05 C301.94,224.50 305.12,222.66 308.87,221.35 C316.11,218.84 318.00,217.48 318.00,214.78 C318.00,213.70 315.35,206.89 312.12,199.65 C299.55,171.51 298.56,165.94 302.92,147.71 C307.03,130.55 304.48,118.47 294.86,109.47 C287.53,102.61 282.43,100.68 270.38,100.19 C256.00,99.61 247.90,102.18 233.04,112.05 C229.55,114.37 223.54,117.73 219.68,119.51 L 212.66 122.77 L 216.62 123.44 C222.15,124.37 231.71,122.64 243.83,118.52 C253.52,115.21 263.55,113.88 265.32,115.66 C265.68,116.02 263.56,117.30 260.59,118.50 C257.63,119.71 251.87,123.45 247.80,126.81 C237.50,135.33 232.59,137.34 222.67,137.08 C217.60,136.94 211.66,135.94 206.13,134.28 C194.95,130.94 180.46,130.09 173.70,132.38 C159.52,137.20 149.93,149.29 148.41,164.29 L 147.72 171.08 L 155.24 178.02 C163.55,185.67 165.67,189.59 166.67,199.10 C168.04,212.20 161.37,224.60 149.61,230.81 C145.08,233.20 143.42,233.50 135.00,233.46 C127.12,233.44 124.77,233.04 121.20,231.17 C114.66,227.73 109.33,222.39 106.53,216.47 C104.41,211.99 104.00,209.69 104.02,202.31 C104.05,191.51 105.75,187.26 113.21,179.37 L 118.50 173.78 L 118.41 164.14 C118.34,157.31 117.54,151.37 115.66,143.77 C112.57,131.30 112.15,118.79 114.51,109.46 C115.33,106.18 118.11,99.23 120.67,94.00 C124.55,86.11 126.78,83.06 133.92,75.94 C152.87,57.01 174.86,49.00 207.86,49.00 C225.13,49.00 237.12,50.73 252.50,55.44 L 260.50 57.89 L 257.50 55.44 C253.11,51.86 239.97,45.21 231.70,42.39 C210.93,35.31 183.71,35.22 163.50,42.18 C147.91,47.54 124.44,62.88 122.51,68.96 C122.16,70.08 121.48,71.00 121.00,71.00 C119.70,71.00 111.43,84.75 108.98,91.00 C104.69,101.93 104.00,109.20 104.00,143.61 L 104.00 176.05 L 100.69 180.86 C98.87,183.51 96.79,187.10 96.07,188.84 C95.35,190.58 94.36,192.00 93.88,192.00 C92.78,192.00 92.83,140.31 93.96,117.50 C94.65,103.44 95.22,99.29 97.26,93.50 C102.36,78.96 108.11,69.66 120.12,56.52 C127.31,48.66 124.97,49.51 113.65,58.88 C98.00,71.82 86.16,90.59 80.89,110.78 C79.18,117.35 78.79,122.90 78.30,148.00 C77.67,180.97 78.60,194.06 82.35,204.37 C88.33,220.85 100.47,235.49 113.12,241.46 C137.63,253.04 163.34,245.02 174.59,222.27 C178.00,215.36 178.47,213.50 178.82,205.46 C179.39,192.57 177.04,186.01 167.98,175.17 L 162.86 169.03 L 165.62 163.96 C172.92,150.55 186.69,144.54 204.82,146.87 C224.99,149.46 233.04,147.93 244.07,139.44 C256.27,130.06 266.75,127.08 277.00,130.10 L 281.50 131.43 L 275.00 132.03 C266.23,132.85 264.82,133.58 255.00,142.44 C244.75,151.70 241.15,153.69 232.85,154.73 L 226.50 155.53 L 231.19 158.77 C237.18,162.91 242.21,169.07 245.72,176.57 C248.28,182.03 248.50,183.46 248.49,194.50 C248.48,205.81 248.31,206.84 245.50,212.41 C237.03,229.20 221.23,238.01 202.00,236.66 C197.32,236.33 192.49,235.77 191.25,235.41 C186.02,233.91 189.78,230.07 202.82,223.56 C219.56,215.21 225.97,206.62 226.77,191.50 C227.26,182.07 225.41,176.68 219.39,170.01 C213.39,163.37 205.72,160.38 197.89,161.63 C193.14,162.39 184.37,167.54 181.75,171.10 L 179.83 173.70 L 182.82 178.60 C194.79,198.26 190.93,224.23 173.43,241.77 C164.41,250.82 155.03,255.55 143.14,257.04 C119.02,260.07 96.35,248.68 82.35,226.51 C80.78,224.03 79.09,222.00 78.59,222.00 C77.51,222.00 78.55,250.44 79.99,260.21 C82.25,275.51 90.87,296.45 101.31,311.98 C108.20,322.24 127.46,341.28 138.26,348.51 C143.62,352.10 147.37,354.01 147.92,353.44 C149.29,352.01 145.71,339.46 141.21,329.92 C137.67,322.41 128.99,309.37 115.64,291.50 C110.52,284.63 101.69,269.97 102.31,269.35 C102.80,268.87 127.05,293.46 135.49,303.00 C149.04,318.31 157.11,334.54 160.14,352.58 C161.32,359.59 161.71,360.41 164.95,362.61 C166.88,363.92 168.81,365.00 169.23,365.00 C171.67,365.00 169.12,341.00 165.56,330.53 C164.10,326.22 163.02,324.04 156.21,311.52 C153.78,307.06 129.75,281.00 128.07,281.00 C127.11,281.00 112.00,265.98 112.00,265.03 C112.00,264.60 111.32,263.68 110.50,263.00 C109.68,262.32 109.00,261.39 109.00,260.95 C109.00,259.77 113.29,261.18 126.05,266.57 C156.27,279.32 174.10,298.63 187.41,333.00 C195.30,353.37 203.00,370.00 204.55,370.00 C205.34,370.00 205.90,364.27 206.39,351.26 ZM 149.63 217.87 C157.55,210.05 158.94,203.28 154.47,194.31 C151.95,189.26 147.31,185.17 141.75,183.08 L 139.00 182.05 L 139.00 153.68 C139.00,128.66 139.23,124.39 140.99,117.41 C143.49,107.50 149.80,94.56 155.59,87.45 C158.03,84.45 159.57,82.00 159.01,82.00 C156.93,82.00 142.36,97.84 138.72,104.05 C131.06,117.14 130.60,119.83 130.22,153.20 L 129.89 182.90 L 126.20 185.12 C115.96,191.26 112.64,202.50 117.98,212.95 C120.12,217.14 122.10,219.02 127.50,221.96 C130.78,223.75 132.64,224.06 137.86,223.68 C143.97,223.23 144.43,223.00 149.63,217.87 ZM 150.73 122.91 C154.56,118.63 162.81,114.12 172.50,110.99 C183.53,107.42 186.59,105.47 197.72,94.89 C211.99,81.32 221.29,76.92 235.43,77.08 L 242.50 77.16 L 236.50 78.49 C224.09,81.26 217.59,85.75 205.66,99.81 C201.46,104.76 195.66,110.51 192.76,112.59 C189.87,114.67 187.31,116.52 187.08,116.69 C186.85,116.86 186.89,117.23 187.17,117.50 C187.97,118.31 200.10,114.06 205.00,111.26 C207.48,109.85 212.97,106.30 217.21,103.38 C233.53,92.15 243.43,89.00 262.45,89.00 C275.95,89.00 282.83,90.37 292.90,95.06 C296.42,96.69 299.51,97.82 299.77,97.56 C300.72,96.61 289.89,84.16 284.71,80.25 C267.19,67.01 243.47,62.15 219.69,66.90 C196.52,71.54 180.87,79.43 165.16,94.41 C156.02,103.13 145.72,120.02 144.38,128.50 L 143.90 131.50 L 145.70 129.01 C146.69,127.64 148.95,124.89 150.73,122.91 ZM 197.00 210.06 C197.00,209.54 197.50,208.81 198.10,208.44 C202.22,205.89 204.42,191.64 201.55,186.10 C200.00,183.11 193.57,177.00 191.97,177.00 C191.43,177.00 191.00,176.32 191.00,175.50 C191.00,172.12 201.89,174.72 206.87,179.30 C209.86,182.05 212.95,188.61 212.98,192.28 C213.03,198.69 208.34,205.74 201.79,209.10 C197.57,211.26 197.00,211.38 197.00,210.06 Z" fill="rgb(252,254,254)"/>
</g>
</svg>